# xmcd
#
# Track frame offsets: 
#        150
#        13847
#        27892
#        40422
#        54240
#        65677
#        83842
#        98105
#        111855
#        122915
#
# Disc length: 1799 seconds
#
# Revision: 4
# Processed by: cddbd v1.5.1PL0 Copyright (c) Steve Scherf et al.
# Submitted via: ExactAudioCopy v0.95a5
#
DISCID=8107050a
DTITLE=Ella Fitzgerald - Ella Fitzgerald. Homenaje Volumen II
DYEAR=1996
DGENRE=Jazz
TTITLE0=My Man
TTITLE1=I Want The Waiter With The Water
TTITLE2=Ella
TTITLE3=Rhythm In Romance
TTITLE4=Baby Won't You Please Come Home
TTITLE5=Hallelujah
TTITLE6=Holiday In Harlem
TTITLE7=Sing Song Swing
TTITLE8=When I Get Low I Get High
TTITLE9=I'm The Lonesomest Gal In Town
EXTD=
EXTT0=
EXTT1=
EXTT2=
EXTT3=
EXTT4=
EXTT5=
EXTT6=
EXTT7=
EXTT8=
EXTT9=
PLAYORDER=
